HIERARCHY
ROOT Hips
{
  OFFSET -33.9132 29.2015 117.021
  CHANNELS 6 Xposition Yposition Zposition Zrotation Xrotation Yrotation
  JOINT LeftUpLeg
  {
    OFFSET 8.64259 1.95398 -2.38835
    CHANNELS 3 Zrotation Xrotation Yrotation
    JOINT LeftLeg
    {
      OFFSET 43.7702 0 0
      CHANNELS 3 Zrotation Xrotation Yrotation
      JOINT LeftFoot
      {
        OFFSET 40.6238 0 0
        CHANNELS 3 Zrotation Xrotation Yrotation
        JOINT LeftToeBase
        {
          OFFSET 12.7242 0 0
          CHANNELS 3 Zrotation Xrotation Yrotation
          End Site
          {
            OFFSET 0 0 0
          }
        }
      }
    }
  }
  JOINT RightUpLeg
  {
    OFFSET -8.2249 1.95398 -2.59336
    CHANNELS 3 Zrotation Xrotation Yrotation
    JOINT RightLeg
    {
      OFFSET 43.5653 0 0
      CHANNELS 3 Zrotation Xrotation Yrotation
      JOINT RightFoot
      {
        OFFSET 40.6238 0 0
        CHANNELS 3 Zrotation Xrotation Yrotation
        JOINT RightToeBase
        {
          OFFSET 12.7242 0 0
          CHANNELS 3 Zrotation Xrotation Yrotation
          End Site
          {
            OFFSET 0 0 0
          }
        }
      }
    }
  }
  JOINT Spine
  {
    OFFSET 0.165834 0.87714 6.61349
    CHANNELS 3 Zrotation Xrotation Yrotation
    JOINT Spine1
    {
      OFFSET 7.38963 1.71661e-005 0
      CHANNELS 3 Zrotation Xrotation Yrotation
      JOINT Spine2
      {
        OFFSET 11.9445 1.14441e-005 0
        CHANNELS 3 Zrotation Xrotation Yrotation
        JOINT Spine3
        {
          OFFSET 14.7254 4.19617e-005 0
          CHANNELS 3 Zrotation Xrotation Yrotation
          JOINT Spine4
          {
            OFFSET 10.9679 0 0
            CHANNELS 3 Zrotation Xrotation Yrotation
            JOINT RightShoulder
            {
              OFFSET 2.46616 -1.6653 3.69651
              CHANNELS 3 Zrotation Xrotation Yrotation
              JOINT RightArm
              {
                OFFSET 13.0012 0 0
                CHANNELS 3 Zrotation Xrotation Yrotation
                JOINT RightForeArm
                {
                  OFFSET 28.7848 1.62311e-005 0
                  CHANNELS 3 Zrotation Xrotation Yrotation
                  JOINT RightHand
                  {
                    OFFSET 26.5688 1.62095e-005 0
                    CHANNELS 3 Zrotation Xrotation Yrotation
                    End Site
                    {
                      OFFSET 0 0 0
                    }
                  }
                }
              }
            }
            JOINT LeftShoulder
            {
              OFFSET 2.38034 -1.29275 -3.7523
              CHANNELS 3 Zrotation Xrotation Yrotation
              JOINT LeftArm
              {
                OFFSET 16.3182 6.07031e-005 0
                CHANNELS 3 Zrotation Xrotation Yrotation
                JOINT LeftForeArm
                {
                  OFFSET 27.0901 0 0
                  CHANNELS 3 Zrotation Xrotation Yrotation
                  JOINT LeftHand
                  {
                    OFFSET 24.5451 1.51738e-005 0
                    CHANNELS 3 Zrotation Xrotation Yrotation
                    End Site
                    {
                      OFFSET 0 0 0
                    }
                  }
                }
              }
            }
            JOINT Neck
            {
              OFFSET 5.0226 -0.0266342 0
              CHANNELS 3 Zrotation Xrotation Yrotation
              JOINT Head
              {
                OFFSET 6.69364 2.86102e-005 0
                CHANNELS 3 Zrotation Xrotation Yrotation
                End Site
                {
                  OFFSET 0 0 0
                }
              }
            }
          }
        }
      }
    }
  }
}
MOTION
Frames:	10
Frame Time:	0.0416667
4.14212 97.3379 -318.131 116.736 -49.0576 111.191 -169.961 9.61025 91.9046 -33.8066 61.6086 -14.5771 73.9573 19.3348 4.96518 15.9429 -10.5142 7.35448 -146.204 -20.5563 132.159 28.6372 62.2291 -25.6004 79.1624 -4.14415 -0.534908 21.013 0.634686 9.24571 -2.50025 8.68003 -89.6158 9.54251 -4.81176 1.12894 -2.1202 -4.75742 1.34006 -24.7271 -4.92806 -0.372933 -4.71442 -4.92807 -0.372938 91.2811 -28.9085 -104.595 54.535 2.75297 -5.22866 -5.71719 -47.5917 -5.71409 -17.8869 2.1688 -19.4803 -85.874 -46.5527 84.403 -19.3549 -8.82411 7.50053 -11.3663 30.498 -0.035619 6.02079 -0.891511 -17.7311 -4.97146 -1.90218 0.800338 -1.92709 -1.97511 -0.704357 
4.35888 96.8558 -317.594 113.03 -50.6334 106.236 -170.949 11.7736 84.8566 -28.5004 56.7694 -16.4328 72.9018 16.7268 4.21418 14.9964 -10.0594 5.70349 -149.906 -21.098 129.37 29.9695 58.8727 -28.5019 78.016 -3.58167 0.285045 22.8536 0.372514 7.794 -2.6929 8.6018 -89.7644 9.70053 -5.26179 0.885419 -1.96011 -5.21771 1.11675 -24.5811 -5.28392 -0.74147 -4.56849 -5.28391 -0.741476 89.1367 -26.5807 -109.926 51.6089 2.59233 -9.43952 -5.47121 -44.4244 -5.55441 -17.1912 2.06291 -19.3649 -87.1206 -52.0113 83.3743 -17.2071 -8.8918 5.84628 -11.6325 28.1636 0.00190064 5.00892 -0.732205 -17.4857 -4.66657 -1.03765 5.66737 0.38228 -1.64596 -1.8279 
4.81325 96.9388 -318.613 109.481 -59.6762 105.524 -175.126 16.837 79.9022 -30.2308 41.3732 -6.80056 72.2582 10.4938 1.79985 15.681 -10.085 6.40251 -164.137 -23.5789 119.107 10.6573 41.9786 -16.2201 78.1992 -3.39963 1.44353 25.8238 -0.651394 7.40137 -1.82583 8.24791 -90.1248 10.3817 -3.69435 0.0731383 -1.28449 -3.68754 0.235852 -23.8561 -3.54542 -1.04179 -3.84348 -3.54542 -1.04179 89.6131 -25.1174 -109.601 51.0569 1.84073 -12.3721 -5.52634 -45.1636 -5.58904 -14.9777 1.85986 -20.0615 -88.0147 -55.1413 82.5897 -16.2975 -7.91969 5.99269 -11.8815 26.0648 -0.483432 4.27836 -0.598141 -16.6275 -2.97605 -0.676892 8.58472 -0.271777 -1.72054 -3.37988 
5.13029 97.0225 -317.896 119.8 -71.0269 115.714 -178.031 17.4914 77.8651 -29.8791 24.8361 -2.36599 67.6659 3.78978 0.380117 11.6606 -11.8799 5.45654 -176.283 -29.5092 104.774 1.57492 22.4466 -3.81717 76.6248 -6.7152 1.58732 35.7751 -4.71437 9.45172 -0.665833 8.18139 -89.9746 10.5126 -1.31453 0.167826 -1.15766 -1.30587 0.225521 -23.6987 -1.30418 -0.235091 -3.68601 -1.30418 -0.235092 89.6102 -24.9669 -109.676 51.5612 1.22898 -13.3541 -5.46158 -44.2931 -5.54812 -9.58434 1.20061 -20.4593 -88.2017 -56.063 82.4784 -16.0049 -8.85185 7.82838 -11.7167 25.3916 -0.20456 3.3745 -0.494442 -16.9245 -2.48348 -0.187293 8.81663 -0.540655 -1.30039 -3.78393 
5.06471 97.9475 -314.342 142.807 -78.78 137.646 -178.959 16.327 77.2055 -29.3433 16.7622 -1.39098 65.67 2.12411 0.768701 8.32052 -14.4869 6.2434 174.37 -31.7544 93.5365 -1.45504 5.36085 -0.765426 68.1029 -5.35948 -1.13254 42.0618 -6.56113 5.98067 0.277894 8.06161 -89.7258 10.7491 0.679935 0.482587 -0.921781 0.700514 0.452188 -23.4571 0.503456 0.664619 -3.44446 0.503471 0.664623 90.9866 -24.2205 -107.043 55.1406 -0.319605 -12.4223 -5.53261 -45.2494 -5.59301 -18.2287 1.976 -17.9715 -88.5622 -57.4221 82.2007 -14.4798 -14.011 3.77533 -10.082 30.6191 -0.0166752 4.05539 -0.428273 -17.7267 -1.66481 -0.298432 9.3509 -1.42459 -1.52614 -5.04374 
5.12792 98.5469 -310.008 -177.505 -82.0667 175.259 -178.741 13.7597 75.9445 -28.0174 9.27536 -2.04674 68.3308 4.23493 -0.371277 8.56809 -14.2736 6.16286 164.865 -25.3774 80.9538 -11.7395 -9.20666 0.867157 55.9336 1.6576 -1.57773 63.7641 -12.5452 23.2577 0.80061 7.87106 -89.3335 11.1217 1.90309 1.14184 -0.548329 1.9515 1.05695 -23.0867 1.47198 1.661 -3.07408 1.47198 1.661 90.1695 -25.134 -108.408 54.1136 0.934303 -10.5924 -5.99115 -50.7346 -5.90525 -15.2814 2.03663 -21.0017 -88.5864 -56.8593 82.0729 -13.9137 -10.478 4.5449 -11.8578 23.4942 -0.0150723 3.16988 -0.288786 -14.7974 -2.95133 -0.524917 7.392 -1.14695 -1.41647 -3.78699 
5.28749 98.5392 -306.345 -135.75 -80.4513 -144.217 -177.343 11.8626 75.569 -27.7155 4.43503 -3.72138 70.6726 5.88071 -0.544525 10.4919 -13.0783 6.18535 163.136 -12.8296 75.9503 -34.969 -17.2724 -1.36427 66.7698 -4.21729 4.38934 37.7953 -5.63635 9.23665 1.24141 7.78691 -89.1512 11.2817 2.86581 1.40652 -0.386729 2.92492 1.27895 -22.9337 2.31065 2.20295 -2.92104 2.31065 2.20295 90.2149 -24.9477 -108.392 54.3561 1.38084 -9.10059 -5.80116 -48.5903 -5.76871 -15.9417 2.15339 -21.2262 -88.8204 -56.5534 81.6955 -13.8052 -10.1538 1.54811 -12.1171 19.9396 -0.0152884 4.34177 -0.536846 -15.652 -2.29672 -0.706252 6.41432 -1.31624 -1.50907 -3.1599 
5.15232 98.7103 -303.016 -125.46 -77.0142 -133.473 -176.896 8.34607 75.7638 -27.3298 1.28748 -3.9918 72.5814 7.17709 -0.704887 13.9101 -11.9975 7.72935 167.552 -0.473561 75.6472 -55.6874 -24.7027 -4.69505 55.7207 2.96684 4.39889 29.4493 -2.45781 9.34632 1.31835 7.9527 -89.1758 10.9503 3.00618 1.35503 -0.717708 3.0629 1.22133 -23.2674 2.45998 2.19611 -3.25473 2.45999 2.19612 90.3016 -25.3352 -108.038 53.4191 1.93088 -8.84991 -5.53833 -45.3249 -5.59706 -17.4997 2.26152 -20.4129 -88.7795 -55.7497 81.613 -14.2855 -12.6327 -3.91698 -10.9481 23.0428 -0.0171655 5.20707 -0.711674 -17.0356 -1.11188 0.0413404 5.12642 -0.55231 -0.680272 -2.91216 
4.46131 98.9722 -299.438 -126.442 -75.8283 -132.165 -176.097 5.13817 78.2263 -28.3602 1.36232 -3.75899 75.9601 8.78486 -1.51732 12.6119 -12.0946 6.65232 172.724 6.2456 80.2046 -64.8343 -25.1057 -5.93003 61.6128 -1.13951 0.333127 29.4092 -1.57259 5.44291 1.09596 8.14763 -89.433 10.5695 2.44346 0.907332 -1.09936 2.48104 0.798843 -23.646 2.05781 1.59994 -3.63331 2.0578 1.59993 90.2487 -26.0974 -107.823 51.5316 2.72454 -9.17207 -5.35526 -42.8102 -5.48295 -18.8031 1.94063 -17.3429 -89.0556 -55.1255 81.1124 -13.0838 -12.5716 -11.0919 -11.3007 23.4529 -0.0195042 6.19281 -0.754282 -16.1637 -0.317151 0.343203 3.65572 -0.37781 -0.205894 -2.16243 
3.85579 99.6628 -295.928 -127.637 -75.9411 -131.273 -176.269 0.93997 79.9051 -25.142 0.961882 -2.62052 76.7052 9.48619 -2.063 15.7901 -11.3672 8.57904 177.568 11.5236 85.3662 -63.0649 -15.714 -6.22617 70.5903 -7.6161 -2.04808 24.8819 -0.164303 6.96907 0.736836 8.22079 -89.6429 10.4289 1.63153 0.566066 -1.24108 1.65487 0.493684 -23.7817 1.38597 1.0303 -3.76902 1.38598 1.0303 90.6594 -25.5819 -107.172 51.2656 3.01487 -8.70136 -5.1817 -40.2329 -5.38116 -17.4044 1.87029 -17.8929 -88.6234 -53.6186 81.4576 -13.0557 -13.1055 -17.585 -11.0501 25.6341 -0.0226947 6.24895 -0.777143 -16.6918 -0.293142 1.25822 3.19256 -0.939166 0.754511 -3.20054 
